<?xml version="1.0" standalone="no"?>
<!DOCTYPE svg PUBLIC "-//W3C//DTD SVG 20010904//EN"
 "http://www.w3.org/TR/2001/REC-SVG-20010904/DTD/svg10.dtd">
<svg version="1.0" xmlns="http://www.w3.org/2000/svg"
 width="1920.000000pt" height="1080.000000pt" viewBox="0 0 1920.000000 1080.000000"
 preserveAspectRatio="xMidYMid meet">
<metadata>
Created by potrace 1.16, written by Peter Selinger 2001-2019
</metadata>
<g transform="translate(0.000000,1080.000000) scale(0.100000,-0.100000)"
fill="#000000" stroke="none">
<path d="M0 5400 l0 -5400 9600 0 9600 0 0 5400 0 5400 -9600 0 -9600 0 0
-5400z m11780 1683 c0 -5 7 -48 16 -98 9 -49 16 -98 16 -107 0 -10 8 -23 19
-29 12 -6 18 -17 15 -25 -3 -9 -1 -12 5 -9 5 4 18 1 27 -6 9 -7 5 0 -10 16
-27 30 -27 30 -14 97 7 37 11 70 8 73 -3 3 2 5 10 5 12 0 17 -17 22 -77 3 -43
8 -113 12 -155 4 -54 2 -78 -5 -78 -6 0 -11 7 -11 15 0 8 -4 15 -10 15 -5 0
-10 -6 -10 -13 0 -20 -68 -17 -73 3 -3 10 -23 22 -49 28 -25 6 -51 18 -58 27
-10 12 -41 15 -159 16 -80 0 -186 4 -236 7 -132 10 -130 11 -145 -57 -10 -47
-10 -76 0 -142 7 -46 14 -95 15 -109 1 -14 7 -34 13 -46 6 -11 21 -68 33 -125
17 -84 20 -124 15 -206 -6 -105 3 -137 26 -89 6 14 15 26 20 26 14 0 9 -37 -7
-50 -34 -29 -13 -32 159 -28 148 3 177 6 193 21 11 9 25 17 31 17 7 0 12 12
12 26 0 30 22 28 26 -2 7 -60 11 -435 4 -414 -8 24 -8 24 -9 3 -1 -17 -7 -23
-25 -23 -19 0 -25 7 -30 33 -5 23 -9 28 -15 18 -7 -11 -13 -9 -30 8 -27 27
-41 30 -217 34 l-152 3 -6 -44 c-6 -46 1 -388 10 -479 6 -55 19 -70 27 -30 2
12 5 -7 6 -43 1 -36 6 -72 11 -80 6 -10 10 -11 10 -2 0 6 4 12 8 12 5 0 12
-57 15 -127 4 -79 10 -129 18 -133 7 -5 10 -33 8 -83 l-4 -76 225 -3 225 -3
10 73 c6 40 15 73 20 72 13 0 18 -163 10 -318 -6 -109 -9 -123 -24 -117 -13 6
-622 16 -898 15 -60 0 -63 1 -63 25 0 14 8 29 20 35 37 20 49 64 65 232 22
229 40 363 70 513 32 159 39 279 26 410 -11 116 -71 353 -71 282 0 -21 -21
-67 -31 -67 -21 0 -28 105 -33 480 -4 223 -9 439 -12 480 -4 43 -1 110 7 158
l12 83 -27 27 c-21 22 -36 27 -76 27 -43 0 -50 3 -55 24 -3 13 -4 25 -1 28 2
2 234 6 515 7 375 2 515 6 523 14 14 14 28 16 28 5z m-9622 -41 c7 -9 17 -33
23 -54 5 -22 16 -38 24 -38 18 0 19 12 4 27 -7 7 -9 23 -5 37 6 25 8 25 94 23
48 -1 98 2 112 6 l25 8 28 -193 c16 -106 31 -200 33 -208 2 -10 -8 -19 -32
-26 -35 -11 -38 -10 -76 27 -68 66 -220 107 -331 89 -109 -17 -214 -100 -232
-182 -7 -31 -20 -36 -29 -12 -9 24 -13 17 -31 -70 l-16 -79 31 -49 c16 -27 33
-61 36 -76 9 -36 41 -100 70 -139 28 -37 29 -41 8 -45 -9 -2 -22 -18 -29 -36
-13 -31 -13 -32 5 -22 10 6 22 15 25 20 11 18 26 10 20 -10 -7 -23 2 -60 15
-60 5 0 7 14 4 30 -4 19 -2 30 5 30 15 0 69 -59 77 -85 4 -11 34 -47 68 -80
63 -61 99 -115 162 -242 20 -40 40 -73 45 -73 13 0 11 24 -2 37 -6 6 -8 21 -4
33 7 22 8 22 25 4 10 -11 46 -59 79 -108 59 -86 60 -90 43 -109 -9 -11 -12
-22 -7 -24 44 -16 61 -33 81 -83 36 -89 54 -199 54 -322 0 -183 -34 -301 -123
-434 -62 -93 -142 -158 -249 -202 -87 -37 -166 -53 -153 -32 5 8 -1 7 -16 -3
-31 -22 -81 -23 -73 -2 4 8 1 15 -5 15 -6 0 -11 4 -11 10 0 5 7 7 15 4 8 -4
25 0 38 8 12 8 39 20 60 27 20 7 37 17 37 22 0 5 -9 5 -22 0 -13 -5 -52 -17
-88 -27 -36 -9 -69 -22 -75 -28 -32 -35 -58 -38 -155 -17 -102 23 -186 27
-239 11 -19 -5 -36 -9 -37 -7 -4 5 -72 482 -68 486 2 2 18 -7 36 -21 57 -42
138 -88 138 -78 0 5 -10 15 -22 21 -34 19 -128 110 -128 125 0 20 27 17 45 -3
82 -98 121 -133 178 -159 57 -27 71 -29 182 -29 150 0 195 15 260 87 62 69 78
129 73 267 -5 121 -24 181 -88 279 -21 34 -34 62 -29 64 12 4 -92 214 -129
257 -33 40 -55 36 -42 -8 4 -16 6 -32 4 -34 -9 -9 -177 168 -212 222 -54 84
-138 265 -173 374 l-33 99 -11 -38 -12 -39 -9 30 c-5 17 -9 100 -9 185 0 173
11 225 72 341 51 100 190 229 245 229 11 0 48 14 83 31 99 47 311 60 343 21z
m10533 -528 c63 -11 96 -13 122 -6 43 12 39 24 67 -163 29 -188 29 -176 -2
-187 -24 -8 -31 -5 -59 27 -41 46 -70 61 -147 75 -139 25 -227 -44 -224 -174
2 -86 32 -139 187 -336 76 -96 154 -199 173 -229 49 -77 98 -186 111 -251 17
-78 15 -236 -4 -316 -60 -260 -288 -388 -581 -328 -43 9 -99 14 -126 12 -26
-3 -48 -1 -48 3 0 5 -9 71 -19 146 -37 265 -36 241 -6 253 14 5 28 10 29 10 2
0 16 -25 31 -55 20 -42 37 -61 73 -82 41 -25 57 -28 133 -28 77 0 90 3 127 28
61 40 85 94 85 187 -1 131 -43 218 -190 392 -246 290 -311 427 -300 633 16
306 228 452 568 389z m-7779 -8 c190 -41 315 -162 364 -356 22 -87 22 -299 0
-394 -24 -101 -71 -182 -133 -230 -50 -39 -52 -42 -46 -79 5 -36 3 -41 -48
-88 l-54 -51 53 43 c28 23 54 40 56 38 1 -2 19 -79 40 -170 48 -219 110 -444
131 -475 9 -14 32 -32 51 -40 27 -12 35 -20 32 -37 -3 -22 -4 -22 -208 -22
l-205 0 -12 36 c-22 70 -72 336 -98 523 -14 105 -26 191 -28 192 -1 1 -30 4
-65 6 l-63 4 3 -327 3 -327 24 -26 c14 -14 33 -26 43 -26 15 0 19 -6 16 -27
l-3 -28 -247 -1 -248 -1 0 28 c0 20 5 29 15 29 9 0 27 11 40 25 l25 24 0 260
c0 237 2 261 18 270 16 10 16 10 -1 11 -16 0 -17 32 -17 558 l1 557 -26 23
c-14 12 -33 22 -41 22 -8 0 -14 10 -14 25 0 19 6 25 33 30 104 17 527 18 609
1z m1449 -9 c164 -55 254 -141 309 -297 19 -52 24 -92 28 -205 4 -141 -10
-275 -30 -275 -5 0 -7 -8 -4 -18 9 -28 -62 -136 -117 -179 -57 -44 -57 -23 -1
-278 51 -230 114 -459 136 -496 10 -17 32 -36 48 -42 27 -10 45 -41 34 -58 -7
-12 -404 -7 -413 5 -23 30 -90 395 -126 694 l-7 52 -64 0 -64 0 0 -315 c0
-213 4 -322 11 -339 7 -14 27 -32 46 -41 26 -13 33 -22 31 -38 -3 -22 -4 -22
-253 -22 l-250 0 -3 22 c-3 17 5 25 32 37 19 8 39 23 45 34 8 14 11 273 11
842 l0 821 -25 24 c-13 14 -33 25 -44 25 -15 0 -20 6 -18 20 2 11 7 23 11 27
25 26 601 26 677 0z m1589 -160 c19 -98 29 -172 24 -176 -5 -5 -19 -12 -30
-15 -17 -5 -24 -1 -34 23 -23 55 -42 60 -237 63 l-178 3 2 -215 2 -215 97 -3
c116 -3 151 8 170 55 11 25 20 33 39 33 l25 0 0 -225 0 -225 -25 0 c-19 0 -28
8 -39 34 -8 19 -23 39 -34 45 -12 6 -68 11 -126 11 -101 0 -105 -1 -108 -22
-2 -13 -2 -153 0 -311 l3 -289 177 4 c192 3 201 6 241 63 21 32 52 38 66 14 5
-7 -21 -183 -46 -307 -10 -52 -11 -53 -40 -47 -16 4 -196 7 -400 7 -204 1
-381 3 -395 6 -25 5 -35 42 -11 42 16 1 51 31 66 57 16 31 16 1621 -1 1657 -6
15 -26 31 -45 38 -24 9 -33 18 -33 35 l0 23 378 1 c424 2 428 2 438 12 14 14
21 -9 54 -176z m5775 168 c220 0 412 3 426 7 l25 7 32 -167 c18 -92 32 -173
32 -179 0 -6 -9 -14 -20 -18 -15 -5 -30 4 -58 34 l-39 41 -121 0 -122 0 -1
-302 c0 -167 0 -363 1 -435 1 -103 -2 -133 -12 -134 -10 0 -10 -2 0 -6 9 -3
12 -71 12 -291 0 -315 2 -326 58 -352 25 -12 32 -20 30 -40 l-3 -25 -250 0
-250 0 -3 22 c-3 17 5 26 33 37 67 28 65 3 65 805 l0 720 -112 3 c-127 3 -159
-6 -183 -51 -15 -30 -38 -39 -61 -23 -9 5 -3 56 19 185 l32 177 35 -7 c19 -5
215 -8 435 -8z m2404 -2 c327 -2 437 0 442 9 10 16 23 -36 16 -62 -3 -11 -1
-20 3 -20 5 0 12 -21 16 -47 3 -27 15 -86 25 -133 14 -64 15 -86 6 -92 -23
-14 -44 -8 -55 16 -21 47 -51 57 -171 58 -61 1 -113 -1 -116 -4 -3 -3 -6 -78
-6 -167 -1 -101 -5 -161 -11 -161 -7 0 -7 -5 0 -13 8 -9 11 -187 12 -566 0
-607 -1 -598 60 -620 25 -8 31 -15 28 -33 l-3 -23 -250 0 -250 0 -3 25 c-2 20
3 28 27 36 64 25 61 -14 61 789 0 400 -1 729 -2 731 -2 1 -55 4 -118 5 l-115
3 -31 -30 c-17 -16 -33 -35 -35 -42 -3 -9 -13 -11 -33 -6 -26 6 -28 9 -22 43
4 20 9 48 11 63 7 45 25 150 36 206 9 45 13 52 27 45 10 -4 213 -9 451 -10z
m1610 -40 c7 -32 15 -69 18 -82 5 -20 3 -22 -18 -17 -21 6 -20 4 5 -9 23 -14
27 -22 24 -46 -3 -16 -1 -29 3 -29 4 0 10 -17 14 -37 3 -21 9 -48 12 -60 4
-18 -1 -25 -22 -33 -23 -9 -30 -7 -40 7 -7 10 -12 20 -10 23 2 3 -11 15 -28
28 -23 15 -51 22 -97 24 -58 3 -65 6 -63 23 2 18 1 17 -9 -2 -6 -13 -20 -23
-32 -23 -21 1 -21 1 -2 15 27 20 6 19 -22 -1 -15 -10 -41 -15 -75 -14 -96 4
-87 27 -87 -214 l0 -215 98 -3 c113 -4 149 9 172 60 12 25 20 32 40 30 l25 -3
0 -220 0 -220 -25 -3 c-21 -2 -28 3 -38 31 -17 47 -46 57 -168 57 l-105 0 3
-134 c2 -74 0 -132 -4 -129 -5 2 -8 0 -8 -6 0 -5 4 -12 8 -15 4 -3 7 -29 5
-58 -3 -49 -3 -137 1 -233 l1 -40 155 -3 c92 -2 170 1 192 8 21 6 41 10 44 10
7 -1 30 35 40 63 8 20 6 20 39 5 16 -7 24 -17 21 -27 -3 -9 -17 -89 -32 -178
l-28 -163 -38 6 c-20 4 -210 7 -420 8 l-383 1 -3 25 c-2 20 5 28 30 40 53 24
58 45 58 258 0 146 3 192 13 193 9 0 9 2 -1 6 -9 4 -12 133 -12 605 0 464 -3
606 -12 626 -7 15 -28 34 -45 42 -23 10 -33 22 -33 38 l0 23 373 -1 c362 0
423 2 435 14 13 14 19 3 31 -51z m-14429 12 c0 -16 -6 -25 -15 -25 -8 0 -17 0
-20 0 -3 0 -16 -10 -30 -22 l-24 -21 -1 -711 c0 -658 1 -714 17 -746 26 -50
75 -75 146 -74 62 1 93 17 131 68 21 27 21 38 23 729 2 546 0 708 -10 727 -6
14 -27 32 -44 40 -23 10 -33 22 -33 38 l0 22 242 -2 c238 -3 241 -3 243 -24 1
-16 -7 -24 -32 -33 -18 -7 -38 -21 -43 -31 -16 -30 -14 -1460 2 -1523 l12 -49
-44 -40 c-162 -143 -329 -208 -501 -195 -146 12 -281 73 -397 183 -64 60 -65
61 -54 93 16 47 18 1502 2 1532 -7 11 -25 25 -41 31 -21 7 -29 16 -29 34 l0
24 250 0 250 0 0 -25z m5830 -2 c0 -17 -4 -24 -14 -20 -9 4 -19 -5 -27 -25
-11 -26 -7 -69 31 -317 23 -157 44 -295 46 -306 2 -11 38 -243 80 -515 41
-272 80 -512 85 -533 8 -30 18 -42 43 -52 25 -11 32 -20 31 -37 l-2 -23 -231
-3 -232 -2 0 28 c0 22 7 30 32 40 l31 11 -7 103 c-3 56 -8 103 -10 106 -3 2
-31 -2 -63 -8 -60 -13 -181 -8 -225 9 -25 9 -25 9 -37 -72 -17 -126 -16 -137
19 -150 23 -9 30 -17 30 -39 l0 -28 -217 2 -218 3 -3 26 c-2 21 2 28 22 33 14
3 30 15 36 25 5 11 34 178 65 373 30 194 84 544 121 778 37 234 69 453 71 487
5 57 3 62 -20 78 -17 11 -23 22 -20 36 5 19 15 19 294 19 l289 -1 0 -26z
m1098 2 c2 -15 -6 -23 -27 -31 -66 -25 -63 12 -62 -771 0 -389 1 -718 1 -731
l0 -23 189 3 c181 3 191 4 213 26 14 12 28 19 32 15 4 -5 6 -3 5 2 -2 6 1 20
5 33 6 18 12 21 29 16 12 -3 25 -9 29 -13 7 -6 -37 -237 -63 -334 -9 -34 -12
-37 -37 -30 -15 4 -205 7 -422 7 l-395 1 -3 22 c-2 16 5 25 31 38 19 9 39 27
46 41 16 36 16 1623 -1 1658 -6 15 -26 31 -45 38 -24 9 -33 18 -33 35 l0 23
253 -2 c244 -3 252 -4 255 -23z m4972 4 c0 -12 -12 -30 -26 -42 -30 -23 -31
-9 12 -286 14 -90 23 -166 20 -169 -3 -3 -2 -10 3 -16 5 -6 14 -48 20 -94 10
-66 10 -87 0 -98 -7 -8 -8 -14 -3 -13 21 4 26 -2 13 -18 -8 -9 -9 -14 -2 -10
7 5 13 -8 17 -40 4 -27 9 -61 11 -78 2 -16 8 -53 14 -82 6 -28 8 -62 6 -74 -3
-12 -1 -27 4 -33 9 -11 31 -137 31 -175 0 -12 -11 -27 -27 -35 -32 -17 -26
-21 11 -6 24 9 25 7 31 -38 3 -26 10 -69 15 -97 5 -27 19 -112 30 -189 11 -76
25 -146 30 -156 5 -10 24 -23 41 -29 24 -8 30 -15 27 -33 l-3 -23 -230 0 -230
0 -3 28 c-3 21 1 27 15 27 43 0 51 41 37 177 l-7 61 -51 -14 c-77 -21 -158
-17 -242 10 -19 6 -21 0 -33 -89 -14 -110 -11 -130 28 -143 21 -7 28 -16 27
-34 l-1 -23 -220 0 c-219 0 -220 0 -223 22 -2 16 5 26 26 37 16 8 33 23 37 33
3 10 24 131 46 268 21 138 43 277 49 310 12 73 66 424 86 555 8 52 21 138 30
190 9 52 18 111 20 130 3 19 11 75 19 125 12 79 12 92 -1 112 -8 13 -19 23
-24 23 -6 0 -10 11 -10 25 l0 25 290 0 c288 0 290 0 290 -21z m-11071 -2138
c24 -5 57 -5 74 0 21 6 35 5 45 -3 21 -18 214 -14 332 6 14 3 77 1 140 -3 63
-5 124 -4 135 1 11 4 100 5 198 1 99 -5 181 -5 184 0 6 11 47 9 59 -3 7 -7 19
-7 35 -2 13 5 69 6 124 3 55 -4 137 -3 182 3 63 7 95 7 133 -3 28 -7 63 -10
78 -6 15 4 65 6 111 6 68 -1 86 -4 97 -18 11 -16 10 -18 -12 -21 -13 -2 -24
-7 -24 -11 0 -14 -78 -25 -205 -28 -143 -5 -269 -6 -310 -4 -16 1 -86 2 -155
1 -69 0 -217 1 -330 4 -354 7 -422 8 -540 2 -63 -4 -140 -6 -170 -5 -30 1
-125 2 -210 3 -85 0 -158 5 -161 10 -4 4 -16 3 -28 -4 -12 -6 -35 -8 -51 -5
-16 3 -55 1 -86 -4 -39 -8 -61 -8 -68 -1 -7 7 -4 10 9 11 14 0 11 4 -9 9 -29
9 -50 5 -42 -8 2 -4 -21 -7 -52 -6 -32 0 -67 -3 -79 -8 -12 -4 -24 -4 -27 0
-3 4 -39 7 -80 6 -42 -1 -76 3 -76 7 0 5 -11 4 -25 -1 -14 -5 -65 -9 -113 -9
-129 1 -385 6 -399 8 -7 0 -12 12 -11 27 3 34 41 50 72 31 16 -11 40 -12 101
-6 44 4 98 4 119 -1 22 -5 44 -6 49 -3 5 3 134 7 286 8 152 2 287 4 301 4 14
1 54 1 90 0 36 -1 90 2 120 6 41 5 65 3 92 -8 22 -9 40 -12 43 -6 4 5 1 9 -5
9 -6 0 -8 5 -5 10 7 12 7 12 64 1z m4112 -11 c45 -9 68 -8 124 5 48 11 71 13
73 6 5 -14 35 -14 49 0 8 8 27 7 69 -4 41 -10 79 -12 124 -7 50 6 68 4 76 -6
14 -18 24 -18 63 2 25 13 42 14 74 8 25 -6 65 -6 99 0 31 5 65 5 75 1 35 -14
282 -20 468 -12 49 2 77 -2 93 -12 18 -11 26 -11 31 -3 8 13 121 26 121 14 0
-4 86 -8 191 -9 149 -1 194 -4 200 -15 5 -8 9 -8 9 -2 0 16 36 24 48 12 6 -6
19 -7 29 -3 30 13 65 14 122 3 31 -6 49 -14 44 -19 -5 -5 -24 -4 -45 2 -28 7
-51 6 -90 -4 -52 -13 -120 -14 -323 -2 -163 9 -205 10 -205 4 0 -4 -135 -7
-300 -7 -165 -1 -316 -4 -336 -8 -21 -4 -35 -3 -31 2 5 10 -223 10 -512 1 -96
-3 -185 -1 -198 4 -15 6 -31 5 -43 -1 -10 -5 -143 -12 -296 -16 -330 -7 -378
-6 -382 6 -2 5 -13 5 -27 0 -24 -9 -190 -13 -403 -10 -63 1 -116 -1 -119 -4
-4 -3 -12 -1 -19 5 -8 7 -19 7 -31 1 -19 -10 -557 -7 -604 3 -21 5 -25 10 -21
30 2 14 9 25 14 25 6 0 7 -7 4 -16 -4 -9 -2 -13 5 -8 6 4 15 0 20 -7 7 -11 9
-9 9 6 0 14 7 21 21 22 17 2 19 -1 10 -10 -15 -15 -14 -30 3 -24 7 3 19 0 26
-6 10 -9 11 -9 6 1 -4 7 -1 12 8 12 9 0 16 5 16 11 0 6 7 17 15 26 14 14 15
13 10 -13 l-6 -29 16 28 c16 28 17 28 88 21 40 -4 80 -11 90 -16 10 -5 30 -5
50 0 19 5 51 7 73 5 21 -3 53 -4 69 -2 36 3 109 2 150 -3 17 -2 64 2 105 7 82
12 173 8 164 -6 -3 -5 2 -9 10 -9 8 0 17 3 20 8 4 7 54 8 201 3 39 -2 91 2
118 7 30 6 47 6 47 0 0 -6 12 -7 28 -3 40 10 282 13 288 3 3 -4 20 -7 37 -7
24 1 26 3 9 6 -12 2 -20 9 -16 14 3 5 13 8 22 5 10 -2 42 -10 73 -16z m4859
10 c11 6 21 5 28 -2 16 -16 142 -18 202 -2 48 12 160 11 199 -2 7 -2 19 0 26
6 8 7 56 8 144 3 72 -5 131 -5 131 -1 0 12 35 9 47 -3 7 -7 17 -8 29 -2 11 6
51 7 89 3 39 -3 92 -2 119 4 34 6 63 6 95 -3 30 -7 57 -8 78 -2 17 5 33 8 35
6 6 -6 74 -6 208 -1 78 3 130 0 137 -6 7 -6 19 -8 27 -5 11 4 13 1 9 -11 -6
-15 -4 -15 15 2 19 17 33 18 113 13 50 -3 96 -11 104 -17 8 -7 21 -7 37 -1 23
9 55 9 83 1 6 -2 28 0 49 5 24 5 46 4 56 -2 11 -7 38 -7 86 1 76 12 138 10
129 -5 -7 -10 8 -13 18 -3 3 3 70 7 149 9 79 2 159 5 178 8 19 2 40 1 45 -4 6
-4 32 -2 59 4 38 9 51 8 54 -1 2 -7 13 -12 25 -12 18 0 19 2 7 10 -27 17 -4
19 44 5 43 -13 55 -13 100 0 33 10 52 12 54 5 5 -14 29 -13 34 2 3 9 14 9 45
-3 30 -12 53 -14 89 -8 38 5 52 4 60 -7 13 -17 31 -18 36 -3 4 12 164 21 183
10 5 -3 24 -4 42 -2 18 1 33 -1 33 -6 0 -10 200 -11 215 -1 16 10 94 3 107
-10 15 -15 32 -16 23 -2 -3 6 6 11 22 12 15 0 35 2 43 3 8 1 18 0 22 -2 4 -2
75 -6 158 -8 83 -2 155 -7 160 -10 6 -3 16 -3 22 1 20 12 50 13 86 2 41 -12
42 -30 1 -18 -20 6 -39 6 -50 -1 -23 -12 -168 -21 -183 -11 -6 4 -33 8 -61 8
-27 1 -73 4 -102 6 -29 3 -50 1 -47 -3 2 -4 -90 -7 -204 -7 -115 0 -224 -3
-242 -7 -18 -4 -30 -3 -27 1 5 10 -145 10 -359 1 -71 -3 -136 -2 -144 3 -8 5
-22 4 -34 -2 -11 -6 -104 -12 -210 -15 -105 -2 -195 -4 -201 -5 -5 0 -26 1
-45 2 -19 0 -121 1 -226 0 -105 0 -198 2 -206 5 -9 4 -19 2 -22 -3 -3 -5 -91
-8 -213 -5 -115 2 -332 4 -483 3 -151 0 -302 -1 -335 -1 -33 0 -78 0 -100 -1
-66 -2 -90 -1 -320 7 -121 4 -258 7 -305 6 -47 0 -169 -2 -272 -4 -104 -2
-188 1 -188 5 0 5 -9 4 -20 -2 -12 -6 -29 -8 -40 -5 -10 3 -38 1 -61 -5 -46
-13 -62 -7 -35 13 16 12 15 13 -6 12 -13 -1 -28 -4 -34 -7 -18 -11 -93 -20
-114 -13 -20 6 -21 7 -3 21 19 14 15 18 -11 8 -9 -3 -16 -12 -16 -19 0 -10 -7
-11 -32 -4 -17 5 -35 14 -39 20 -4 8 -10 5 -17 -7 -10 -17 -25 -19 -184 -19
-95 -1 -178 1 -185 3 -6 2 -11 16 -11 32 1 31 32 48 54 29 6 -5 45 -9 85 -9
41 0 83 0 94 -1 11 0 110 2 220 4 110 3 209 5 220 5 11 0 43 1 70 2 101 3 120
3 143 -5 13 -4 22 -4 21 1 -3 20 2 22 38 14 20 -5 44 -5 53 0z"/>
<path d="M4680 5955 l0 -297 73 4 c62 3 80 8 111 31 44 34 71 84 85 162 29
155 -5 300 -84 361 -30 22 -49 28 -110 32 l-75 5 0 -298z"/>
<path d="M6090 5956 l0 -296 63 0 c116 0 175 57 204 195 13 65 14 96 6 161
-19 159 -78 225 -204 232 l-69 4 0 -296z"/>
<path d="M8821 6088 c-6 -46 -27 -225 -46 -398 -20 -173 -40 -348 -45 -388 -6
-41 -8 -78 -5 -82 10 -16 112 -33 157 -26 85 13 83 2 53 251 -14 121 -31 258
-36 305 -5 47 -18 157 -29 244 -11 88 -20 163 -20 168 0 4 -4 8 -9 8 -5 0 -14
-37 -20 -82z"/>
<path d="M14899 6158 c-3 -44 -8 -60 -24 -78 -10 -11 -27 -20 -37 -20 -11 0
-16 -4 -13 -10 3 -5 1 -10 -4 -10 -6 0 -11 10 -11 22 0 28 -12 16 -14 -14 -3
-39 17 -39 56 -1 37 36 38 36 38 13 0 -14 -5 -54 -10 -90 -5 -36 -13 -92 -16
-125 -3 -33 -16 -148 -29 -255 -20 -173 -25 -196 -45 -212 -12 -10 -18 -18
-13 -18 5 0 15 6 22 13 10 10 11 -2 5 -58 -4 -38 -8 -76 -8 -84 -1 -18 63 -39
122 -40 57 -1 112 22 112 48 0 17 -24 237 -34 316 -2 17 -7 55 -11 85 -4 30
-8 66 -10 80 -2 14 -13 106 -25 205 -26 228 -29 245 -40 245 -6 0 -10 -6 -11
-12z"/>
</g>
</svg>
